<svg width="18" height="21" viewBox="0 0 18 21" fill="none" xmlns="http://www.w3.org/2000/svg">
<path d="M15.625 18.375H6V6.125H15.625M15.625 4.375H6C5.53587 4.375 5.09075 4.55937 4.76256 4.88756C4.43437 5.21575 4.25 5.66087 4.25 6.125V18.375C4.25 18.8391 4.43437 19.2842 4.76256 19.6124C5.09075 19.9406 5.53587 20.125 6 20.125H15.625C16.0891 20.125 16.5342 19.9406 16.8624 19.6124C17.1906 19.2842 17.375 18.8391 17.375 18.375V6.125C17.375 5.66087 17.1906 5.21575 16.8624 4.88756C16.5342 4.55937 16.0891 4.375 15.625 4.375ZM13 0.875H2.5C2.03587 0.875 1.59075 1.05937 1.26256 1.38756C0.934374 1.71575 0.75 2.16087 0.75 2.625V14.875H2.5V2.625H13V0.875Z" fill="#D9D9D9"/>
</svg>
